<svg id="Слой_1" data-name="Слой 1" xmlns="http://www.w3.org/2000/svg" xmlns:xlink="http://www.w3.org/1999/xlink" viewBox="0 0 200 100"><defs><style>.cls-1{fill:#f4e724;}.cls-2{fill:url(#Degradado_sin_nombre_28);}.cls-3{fill:url(#Degradado_sin_nombre_27);}</style><linearGradient id="Degradado_sin_nombre_28" x1="2092.67" y1="-6949.78" x2="2161.9" y2="-6949.78" gradientTransform="translate(-6783.46 -2073.83) rotate(90)" gradientUnits="userSpaceOnUse"><stop offset="0" stop-color="#e9454d"/><stop offset="0.46" stop-color="#d13062"/><stop offset="1" stop-color="#b0127e"/></linearGradient><linearGradient id="Degradado_sin_nombre_27" x1="129.06" y1="49.64" x2="184.15" y2="49.64" gradientUnits="userSpaceOnUse"><stop offset="0" stop-color="#f39236"/><stop offset="0.26" stop-color="#f07a42"/><stop offset="0.81" stop-color="#ea3d61"/><stop offset="1" stop-color="#e7266c"/></linearGradient></defs><path class="cls-1" d="M32.12,46.37v2.94H29l-3.75,3.76H6.68V43.48L4.43,45.73v-4.3l2.25-2.25V18.71h7V32.23l-2.35,2.35v4.3l2.35-2.35v9.79H32l-.05,0Z"/><path class="cls-1" d="M57.7,46.81l-2.79,2.78,0,.77v2.71H35.81V50.3l3.49-3.49h2.16V43.68l2.84-2.84v-16H34.84v0l3.49-3.5V18.58H55v6.31H51.73V33.4L48,37.12v9.69Z"/><path class="cls-1" d="M91,18.5,78.14,51.34l0,.07-.65,1.66H71.28l-.63-1.63-2.42-6.18L66.56,41l-1.8,1.76-3.28-8.35,1.79-1.79,0,0h0L57.8,18.5h7.49l3.38,8.68h0l-2.35,2.35,3.28,8.36L72,35.59l0,.07,2.41,6.19v0l5.67-14.39,3.52-8.92Z"/><path class="cls-1" d="M103.32,25v7.34h17.51v6.55H103.32v3.78l-3.86,3.86h19.77l4.15,4.14v2.41H92.9l3.18-3.17V18.73h27.3V25Z"/><path class="cls-1" d="M57.8,81.58V84H55.23L52.1,87.16H36.61v-8l-1.87,1.88V77.46l1.87-1.87V58.53H42.4V69.8l-2,2v3.59l2-2v8.16H57.73l0,0Z"/><path class="cls-1" d="M85.35,76.83l4,10.33H82.6l-2-5.56H69.07l-2,5.56H62.88l0,0H60.61L71.81,58.5h6.37l3.75,9.61-1.45,1.45,3.18,8.94,1.68-1.68ZM77.43,76l-.87-2.47.85-.85-2.57-7.18L71.1,76Z"/><path class="cls-1" d="M121.3,75.52l.76.76.08,3.84-7.78,7H94.19l2-2V58.49h19.9l5.2,5.17v5.83l-3,3,2.34,2.35-.06.06h.12Zm-6.4,5V78.09l-3.18-3.18h-8.19v2.84l-2.81,2.82v2H113l2-2ZM103.54,63.3v7.27h7.18l3.37-3.37V65l-1.73-1.72Z"/><path class="cls-2" d="M137.93,87.91l57.95-33.46a1.16,1.16,0,0,0,.58-1,1.15,1.15,0,0,0-.58-1L137.93,19a1.16,1.16,0,0,0-1.74,1V86.91a1.16,1.16,0,0,0,.58,1A1.2,1.2,0,0,0,137.93,87.91Zm14.83-57.69v3.3a3.33,3.33,0,0,0,1.68,2.9L188.62,56,149.27,78.69V74.93a1.54,1.54,0,0,0-.63-1.25l-6.23-4.58a1.61,1.61,0,0,1-.65-1.29V59.09a2.3,2.3,0,0,0-1-1.89l-2.27-1.63V22ZM138.51,72.41l9.93,6.76-9.93,5.74Z"/><path class="cls-3" d="M129.06,63.32V34.79a1.15,1.15,0,0,1,.52-1l23.82-16a1.14,1.14,0,0,1,1.22-.05l28.95,16.72a1.15,1.15,0,0,1,.58,1V64.59a1.16,1.16,0,0,1-.58,1L156,81.54a1.16,1.16,0,0,1-1.23-.05L129.57,64.28A1.16,1.16,0,0,1,129.06,63.32Zm2.32-27.92V62.71l24,16.46,26.42-15.25V36.14l-27.75-16Z"/></svg>